<svg id="visual" viewBox="0 0 900 600" width="900" height="600" xmlns="http://www.w3.org/2000/svg" xmlns:xlink="http://www.w3.org/1999/xlink" version="1.1"><rect x="0" y="0" width="900" height="600" fill="#001220"></rect><path d="M0 360L21.5 365.7C43 371.3 86 382.7 128.8 396.7C171.7 410.7 214.3 427.3 257.2 433.2C300 439 343 434 385.8 427.7C428.7 421.3 471.3 413.7 514.2 409.2C557 404.7 600 403.3 642.8 393.8C685.7 384.3 728.3 366.7 771.2 361.2C814 355.7 857 362.3 878.5 365.7L900 369L900 601L878.5 601C857 601 814 601 771.2 601C728.3 601 685.7 601 642.8 601C600 601 557 601 514.2 601C471.3 601 428.7 601 385.8 601C343 601 300 601 257.2 601C214.3 601 171.7 601 128.8 601C86 601 43 601 21.5 601L0 601Z" fill="#ff6f61"></path><path d="M0 459L21.5 454.5C43 450 86 441 128.8 438.2C171.7 435.3 214.3 438.7 257.2 441C300 443.3 343 444.7 385.8 444.7C428.7 444.7 471.3 443.3 514.2 442.2C557 441 600 440 642.8 437.8C685.7 435.7 728.3 432.3 771.2 433.5C814 434.7 857 440.3 878.5 443.2L900 446L900 601L878.5 601C857 601 814 601 771.2 601C728.3 601 685.7 601 642.8 601C600 601 557 601 514.2 601C471.3 601 428.7 601 385.8 601C343 601 300 601 257.2 601C214.3 601 171.7 601 128.8 601C86 601 43 601 21.5 601L0 601Z" fill="#f35c62"></path><path d="M0 462L21.5 462.7C43 463.3 86 464.7 128.8 463.2C171.7 461.7 214.3 457.3 257.2 456C300 454.7 343 456.3 385.8 455.2C428.7 454 471.3 450 514.2 454C557 458 600 470 642.8 477.7C685.7 485.3 728.3 488.7 771.2 490.5C814 492.3 857 492.7 878.5 492.8L900 493L900 601L878.5 601C857 601 814 601 771.2 601C728.3 601 685.7 601 642.8 601C600 601 557 601 514.2 601C471.3 601 428.7 601 385.8 601C343 601 300 601 257.2 601C214.3 601 171.7 601 128.8 601C86 601 43 601 21.5 601L0 601Z" fill="#e64964"></path><path d="M0 527L21.5 527.8C43 528.7 86 530.3 128.8 532.5C171.7 534.7 214.3 537.3 257.2 528.8C300 520.3 343 500.7 385.8 500.7C428.7 500.7 471.3 520.3 514.2 527.2C557 534 600 528 642.8 524.5C685.7 521 728.3 520 771.2 513.5C814 507 857 495 878.5 489L900 483L900 601L878.5 601C857 601 814 601 771.2 601C728.3 601 685.7 601 642.8 601C600 601 557 601 514.2 601C471.3 601 428.7 601 385.8 601C343 601 300 601 257.2 601C214.3 601 171.7 601 128.8 601C86 601 43 601 21.5 601L0 601Z" fill="#d73666"></path><path d="M0 532L21.5 537.3C43 542.7 86 553.3 128.8 555.5C171.7 557.7 214.3 551.3 257.2 546.7C300 542 343 539 385.8 538.5C428.7 538 471.3 540 514.2 542.3C557 544.7 600 547.3 642.8 545.3C685.7 543.3 728.3 536.7 771.2 539.3C814 542 857 554 878.5 560L900 566L900 601L878.5 601C857 601 814 601 771.2 601C728.3 601 685.7 601 642.8 601C600 601 557 601 514.2 601C471.3 601 428.7 601 385.8 601C343 601 300 601 257.2 601C214.3 601 171.7 601 128.8 601C86 601 43 601 21.5 601L0 601Z" fill="#c62368"></path></svg>